<svg xmlns="http://www.w3.org/2000/svg" width="32" height="32" fill="none"><path d="M11.347 26.667h-.107c-2.15-.02-4.267-.515-6.2-1.453A1.84 1.84 0 0 1 4 23.293a1.88 1.88 0 0 1 1.547-1.573 8.84 8.84 0 0 0 3.387-1.187C5.27 17.67 3.472 13.025 4.253 8.44a1.88 1.88 0 0 1 1.333-1.533 1.8 1.8 0 0 1 1.907.547C9.067 9.517 11.42 10.843 14 11.12a6 6 0 0 1 1.88-4.133 5.96 5.96 0 0 1 8.427.183l.067.07c.287.253.7.306 1.04.133.926-.437 2.03-.04 2.467.886.184.39.226.83.12 1.248a8.88 8.88 0 0 1-1.707 3.467 14.39 14.39 0 0 1-14.947 13.693zm0-2.667h.107c6.47.223 11.893-4.84 12.116-11.3l.004-.143a1.76 1.76 0 0 1 .493-1.133 6.92 6.92 0 0 0 .827-1.333c-.97.002-1.898-.4-2.547-1.133-.623-.618-1.47-.96-2.347-.947-.886-.023-1.745.308-2.387.92-.872.828-1.238 2.057-.96 3.227l.347 1.52-1.56.107c-3.235.264-6.423-.906-8.72-3.2-.1 3.58 1.824 6.9 4.973 8.613l1.267.72-.84 1.2c-.908 1.19-2.153 2.083-3.573 2.56.91.228 1.847.34 2.787.333h.013z" fill="#828282"/></svg>